<svg id="Layer_1" data-name="Layer 1" xmlns="http://www.w3.org/2000/svg" viewBox="0 0 1000 1000">
<defs>
<style>.cls-1{fill:#1b3f58;}.cls-2{fill:none;stroke:#1b3f58;stroke-miterlimit:10;stroke-width:5.15px;}</style>
</defs><title>Wlis</title>
<path style='fill:brown' d="M605.51,539.45l-1,2.34-1.27,2.83-1.47,3.26-1.64,3.62-4.75,1.35L587.71,555l-.19,3.74-.2,3.7-.19,3.68-.19,3.63-.18,3.59,1.22,3.12,1.44,2.92,1.36,2.79,5.91.49,3.78-1.84,1-3.58,1.06-3.6,1.06-3.63,1.06-3.57,1-3.52,1-3.43,1-3.29.91-3.11.85-2.89-.63-2.74-1.13-2.74-1.11-2.69c-.36-.85-.7-1.7-1.05-2.55Z"/>
<path style='fill:brown' d="M592.08,497l-1.3,1.1-1.46,1.25-1.72,1.45-2.2,1.86a11,11,0,0,0-2.87,1.14,19.12,19.12,0,0,0,2-.42l-3,2.58-2.3,1.95h0l-.12.1-.71.6-.09.08-.68.57h0l-.74.62a3.73,3.73,0,0,1-.3.26l-.47.41-.89.75-.2.17-.85.71-1,.88-.17.14-1.39,1.18-.1.09c0,.07,0,.15,0,.22h0v0h0l.65,3.21.12.61c.15.77.3,1.54.46,2.31l.33,1.64c.06.34.14.69.2,1h0l.5,2.46.1.53h0c.12.59.24,1.18.35,1.76h0l.45,2.21s0,.07,0,.1c.13.64.25,1.28.38,1.92l.37,1.82.07.38h0l.25,1.23h0l.58,2.91.83,4.14.82,4.11.71,4L576,553.25l-2,1.54L572.39,556l-1.22.94-1,.75-.83.64-.7.53-.54.42-.47.36-.42.32-.32.24-7.54,5.76,3.24,13.81-10.12,3.74v9.65l-23,17.22-20.14,2.56-3.9-7.63,2.34-1.4-21.53-44.52L492,541.42l.3-.95c.14-.41.27-.82.4-1.24,0-.09.07-.19.1-.29l-.76-1.4-.57-1-2.15-3.93-3.1-5.7-3.52-6.47-1.61-2.95L478,511.59,477.1,510l-.9-1.66c-.12-.21-.23-.42-.34-.63l-.38-.69-.43-.78c-.14-.27-.29-.54-.44-.81l.71-1.74s0,0,0-.06l1.23-3c.24-.57.47-1.15.7-1.73s.49-1.19.73-1.79c.37-.9.74-1.81,1.1-2.72.17-.39.32-.78.48-1.16l1.27-3.13c0-.12.1-.25.14-.37l-4.89-.05h-1c-2.29,0-4.59-.06-6.88-.07l-2.57-3.12c-.14-.35-.27-.71-.41-1.07l-1.15-3.09-1.53.5-.35.12-5.13,1.67-3.07,1-2.72.89-5.83,1.9-.35.11c-.61.21-1.22.4-1.83.6l-6.39-.21-1.62-.06-7-.23-1,0-5.41-.18-1.76-.06q-2.5-3.15-5-6.32l-5.34-6.75c-.71-.89-1.42-1.79-2.12-2.69s-1.55-2-2.32-2.93c-1.25-1.58-2.5-3.15-3.74-4.73l-1.7-2.14c-.37-.47-.73-.94-1.1-1.4l-1-1.28-4.14-5.24q1.69-10.2,3.42-20.4l22.74-26.78c-.58-2.28-1.15-4.57-1.72-6.85l14.79-13.23,11.68,5.76,34.62-9L482,395l15.71,5.77,2.05,3.58,10.82,2.52c.86-2.61,1.71-5.21,2.56-7.82l27.23,6,4.49-2.89,12.45,1.81q1.63,4.69,3.28,9.4l-3.2,1.85-5.58-5.78,35.37,58.13.6,1,1.51-.27q12-2.15,23.93-4.32l-8.73,15.64-1.05,1.89-1.53,2.73c-.22.4-.44.8-.67,1.2-.51.92-1,1.85-1.55,2.78l-.51.92,0,0-.09.16v0l-.14.25v0l-.07.13-.14.24a0,0,0,0,1,0,0l-.24.41h0l-.29.53-.34.61-.38.69-.48.73-.79.67-.86.73-1,.82-1.07.9Z"/>
<polygon class="cls-2" points="634.33 573.66 634.33 418.26 499.74 340.56 365.15 418.26 365.15 573.66 499.74 651.37 634.33 573.66"/>
<polygon class="cls-2" points="814.55 677.72 814.55 314.2 499.74 132.45 184.93 314.2 184.93 677.72 499.74 859.48 814.55 677.72"/>
<path class="cls-2" d="M499.12,859.11V651"/>
<path class="cls-2" d="M499.12,340.9V132.81"/>
<path class="cls-2" d="M812.15,679.11q-89.5-52.36-179-104.75"/>
<path class="cls-2" d="M365.81,417.9l-179-104.78"/>
<path class="cls-2" d="M809.88,311.5Q720.2,363.76,630.5,416"/>
<path class="cls-2" d="M365.17,570.65q-90.12,52.53-180.23,105"/>
<polygon class="cls-1" points="564.9 197.41 564.9 122.36 499.91 84.84 434.92 122.36 434.92 197.41 499.91 234.93 564.9 197.41"/>
<polygon class="cls-1" points="884.74 355.77 884.74 280.72 819.75 243.2 754.76 280.72 754.76 355.77 819.75 393.29 884.74 355.77"/>
<polygon class="cls-1" points="251.78 355.77 251.78 280.72 186.79 243.2 121.8 280.72 121.8 355.77 186.79 393.29 251.78 355.77"/>
<polygon class="cls-1" points="564.73 794.51 564.73 869.56 499.74 907.08 434.75 869.56 434.75 794.51 499.74 756.99 564.73 794.51"/>
<polygon class="cls-1" points="884.57 636.16 884.57 711.2 819.58 748.73 754.59 711.2 754.59 636.16 819.58 598.63 884.57 636.16"/>
<polygon class="cls-1" points="245.24 636.16 245.24 711.2 180.25 748.73 115.26 711.2 115.26 636.16 180.25 598.63 245.24 636.16"/>
</svg>